# xmcd CD database file
#
# Track frame offsets:
#	150
#	11639
#	29724
#	45233
#	56443
#	72743
#	91662
#
# Disc length: 1425 seconds
#
# Revision: 1
# Processed by: cddbd v1.5.1PL0 Copyright (c) Steve Scherf et al.
# Submitted via: CDex 1.51
#
DISCID=55058f07
DTITLE=Amy Conn - Demo - June 2003
DYEAR=2003
DGENRE=Country
TTITLE0=My Baby Loves Me
TTITLE1=Bring On The Rain
TTITLE2=It's My Time
TTITLE3=Some Days You Gotta Dance
TTITLE4=Broken Wing
TTITLE5=I Guess You Had To Be There
TTITLE6=Independence Day
EXTD=YEAR: 2003
EXTT0=
EXTT1=
EXTT2=
EXTT3=
EXTT4=
EXTT5=
EXTT6=
PLAYORDER=
